<svg width="74" height="23" viewBox="0 0 74 23" fill="none" xmlns="http://www.w3.org/2000/svg">
<g clip-path="url(#clip0_319_29)">
<g filter="url(#filter0_i_319_29)">
<path d="M0 0C4.45771 0 8.91542 0 13.5082 0C13.5082 7.59 13.5082 15.18 13.5082 23C13.4853 23 13.4624 23 13.4388 23C13.3861 22.9244 13.3861 22.9244 13.3236 22.8173C13.3002 22.7775 13.2769 22.7377 13.2528 22.6967C13.2272 22.6527 13.2017 22.6086 13.1761 22.5645C13.1496 22.5192 13.123 22.4738 13.0964 22.4284C13.041 22.3341 12.9858 22.2396 12.9306 22.1451C12.8179 21.9522 12.7037 21.7601 12.5896 21.5681C12.5284 21.4652 12.4674 21.3622 12.4064 21.2592C12.3186 21.1112 12.2308 20.9633 12.143 20.8153C11.898 20.4028 11.6533 19.9901 11.4111 19.5758C11.2313 19.2686 11.0495 18.9626 10.8677 18.6565C10.8556 18.6361 10.8434 18.6156 10.8309 18.5946C10.7979 18.539 10.7649 18.4835 10.732 18.428C10.7084 18.3883 10.6849 18.3485 10.6607 18.3076C10.6437 18.2863 10.6266 18.2651 10.609 18.2432C10.3869 17.9381 10.4246 17.5988 10.4287 17.2362C10.4288 17.1637 10.4287 17.0911 10.4286 17.0186C10.4286 16.8224 10.4298 16.6263 10.4312 16.4301C10.4325 16.2248 10.4327 16.0196 10.4329 15.8143C10.4336 15.4259 10.4353 15.0375 10.4374 14.6491C10.4397 14.2068 10.4408 13.7645 10.4419 13.3222C10.4441 12.4126 10.4477 11.5031 10.4524 10.5935C10.4313 10.5944 10.4101 10.5953 10.3884 10.5963C9.87217 10.6184 9.35599 10.6348 8.83942 10.6451C8.58955 10.6502 8.33999 10.6572 8.09032 10.6686C6.4262 10.7433 6.4262 10.7433 6.10498 10.5001C5.8852 10.2902 5.78749 10.0184 5.70372 9.72807C5.62994 9.50753 5.5053 9.32535 5.38028 9.13157C5.33438 9.05585 5.28869 8.98 5.24328 8.90397C5.19707 8.82727 5.15086 8.75058 5.10465 8.67388C4.55012 7.75352 4.55012 7.75352 4.35805 7.42745C4.33888 7.39507 4.33888 7.39507 4.31933 7.36202C4.23651 7.22065 4.23651 7.22065 4.23651 7.18083C6.28774 7.18083 8.33898 7.18083 10.4524 7.18083C10.4524 6.25408 10.4524 5.32733 10.4524 4.37249C7.80525 4.37249 5.15812 4.37249 2.43078 4.37249C1.89388 3.41979 1.89388 3.41979 1.70365 3.08177C1.49888 2.71801 1.29298 2.35497 1.08607 1.99249C0.913134 1.68932 0.741512 1.38539 0.570452 1.08111C0.46895 0.90059 0.367161 0.720268 0.264239 0.54059C0.246275 0.509146 0.228311 0.477702 0.209803 0.445305C0.176428 0.386948 0.142936 0.328662 0.109306 0.27046C0 0.0790275 0 0.0790275 0 0Z" fill="#5E4629"/>
</g>
<g filter="url(#filter1_i_319_29)">
<path d="M14.585 0C19.0427 0 23.5004 0 28.0932 0C28.0416 0.131967 27.9901 0.245499 27.9228 0.368262C27.9029 0.404667 27.883 0.441072 27.8624 0.478579C27.8412 0.517144 27.8199 0.555708 27.798 0.595441C27.776 0.635494 27.754 0.675547 27.7313 0.716815C27.5984 0.95817 27.4636 1.19826 27.3254 1.43655C27.1946 1.66239 27.0665 1.88981 26.9386 2.11737C26.7687 2.41932 26.5981 2.72078 26.4263 3.02164C26.1703 3.47106 25.9164 3.92181 25.6624 4.37249C23.0038 4.37249 20.3452 4.37249 17.6061 4.37249C17.6061 5.3227 17.6061 6.27292 17.6061 7.25193C19.6344 7.25193 21.6627 7.25193 23.7525 7.25193C23.7205 7.38307 23.6841 7.46368 23.6187 7.57895C23.598 7.6156 23.5773 7.65225 23.556 7.69002C23.5335 7.72948 23.5109 7.76894 23.4877 7.8096C23.4641 7.85124 23.4404 7.89289 23.4168 7.93453C23.2396 8.24622 23.0589 8.55565 22.8769 8.86445C22.7037 9.15886 22.5331 9.45481 22.3635 9.75145C22.3452 9.78347 22.3452 9.78347 22.3265 9.81613C22.2707 9.91375 22.2149 10.0114 22.1592 10.1091C22.1473 10.1279 22.1353 10.1467 22.123 10.1661C22.0806 10.2415 22.0806 10.2415 22.0566 10.3462C22.0042 10.4943 21.9631 10.5646 21.8426 10.6646C21.5601 10.7426 21.252 10.7155 20.9625 10.7079C20.8444 10.7052 20.7263 10.7049 20.6082 10.7044C20.3848 10.7031 20.1615 10.6996 19.9382 10.6953C19.6839 10.6906 19.4295 10.6882 19.1751 10.6861C18.652 10.6816 18.1291 10.6741 17.6061 10.6646C17.6066 10.7021 17.607 10.7396 17.6075 10.7783C17.6191 11.6943 17.6277 12.6104 17.6331 13.5265C17.6357 13.9696 17.6394 14.4126 17.6454 14.8556C17.6506 15.2421 17.6539 15.6286 17.6551 16.0152C17.6558 16.2195 17.6573 16.4238 17.6612 16.6281C17.6899 18.224 17.6899 18.224 17.1532 18.8615C17.0303 19.0169 16.9361 19.1907 16.8378 19.3629C16.7976 19.431 16.7572 19.4991 16.7168 19.5671C16.6972 19.6001 16.6775 19.6332 16.6573 19.6673C16.5465 19.8532 16.4343 20.0381 16.3222 20.2232C16.1018 20.5869 15.8829 20.9516 15.6639 21.3162C15.5915 21.4367 15.519 21.5572 15.4466 21.6776C15.4228 21.7172 15.399 21.7568 15.3745 21.7975C15.3276 21.8755 15.2806 21.9535 15.2336 22.0314C15.1278 22.2072 15.0226 22.3832 14.9191 22.5604C14.9013 22.5906 14.8836 22.6208 14.8653 22.6519C14.8327 22.7077 14.8002 22.7635 14.768 22.8195C14.732 22.8809 14.6935 22.9407 14.6544 23C14.6315 23 14.6086 23 14.585 23C14.585 15.41 14.585 7.82 14.585 0Z" fill="#5E4629"/>
</g>
<g filter="url(#filter2_i_319_29)">
<path d="M57.0537 5.19011C62.7849 5.19011 62.7849 5.19011 63.7905 6.07883C63.8118 6.09716 63.8331 6.11549 63.855 6.13437C64.3839 6.63112 64.7623 7.43749 64.8031 8.17015C64.8167 9.13486 64.6953 9.94242 64.0296 10.6725C63.5987 11.1252 63.0438 11.4061 62.4709 11.6244C62.6792 12.0136 62.8934 12.3987 63.1125 12.7816C63.2634 13.0456 63.4134 13.3101 63.5626 13.5752C63.5841 13.6135 63.6057 13.6518 63.628 13.6913C63.7157 13.8471 63.8033 14.0029 63.891 14.1587C63.9566 14.2753 64.0222 14.3918 64.0878 14.5083C64.1196 14.5649 64.1196 14.5649 64.1521 14.6227C64.2624 14.8186 64.3734 15.014 64.4856 15.2087C64.5081 15.2478 64.5306 15.2869 64.5537 15.3272C64.5966 15.4016 64.6396 15.476 64.6828 15.5503C64.7019 15.5836 64.7211 15.6169 64.7408 15.6511C64.7577 15.6803 64.7745 15.7094 64.7919 15.7394C64.8299 15.8146 64.8486 15.8795 64.8669 15.9614C64.5585 15.9813 64.2503 15.9963 63.9413 16.0056C63.7978 16.01 63.6547 16.016 63.5114 16.0257C62.591 16.0867 62.591 16.0867 62.3391 15.8827C62.1756 15.6818 62.0787 15.4552 61.9894 15.212C61.9386 15.0782 61.8738 14.9644 61.8005 14.8421C61.7592 14.7679 61.7178 14.6937 61.6765 14.6194C61.6535 14.578 61.6304 14.5367 61.6074 14.4953C61.5245 14.3466 61.4417 14.1979 61.3589 14.0491C61.2768 13.9015 61.1945 13.7539 61.1123 13.6063C61.1008 13.5857 61.0894 13.5652 61.0776 13.544C60.8924 13.2118 60.705 12.881 60.5155 12.5514C60.3872 12.3274 60.2659 12.1015 60.1443 11.8733C59.8234 11.8615 59.5026 11.8498 59.172 11.8377C59.172 13.1985 59.172 14.5593 59.172 15.9614C58.4729 15.9614 57.7739 15.9614 57.0537 15.9614C57.0537 12.4068 57.0537 8.85233 57.0537 5.19011ZM59.172 7.07419C59.172 8.09479 59.172 9.1154 59.172 10.1669C59.6823 10.1713 59.6823 10.1713 60.2029 10.1758C60.3094 10.1771 60.4158 10.1784 60.5255 10.1797C60.6113 10.1802 60.697 10.1805 60.7828 10.1808C60.8479 10.1819 60.8479 10.1819 60.9144 10.183C61.4771 10.1832 61.885 9.99656 62.2903 9.60898C62.5336 9.348 62.6065 8.95547 62.6228 8.60278C62.5997 8.14348 62.4573 7.72962 62.1246 7.41287C61.7255 7.10512 61.2106 7.0575 60.7285 7.06378C60.6688 7.06394 60.6688 7.06394 60.6078 7.0641C60.4613 7.06465 60.3147 7.06614 60.1682 7.06752C59.8394 7.06972 59.5107 7.07192 59.172 7.07419Z" fill="#5E4629"/>
</g>
<g filter="url(#filter3_i_319_29)">
<path d="M72.854 6.11438C72.8769 6.13248 72.8998 6.15058 72.9234 6.16923C73.4554 6.6032 73.7375 7.27245 73.8519 7.94291C73.8632 8.05568 73.861 8.16949 73.861 8.28285C73.0818 8.28285 72.3025 8.28285 71.4997 8.28285C71.4653 8.08928 71.4653 8.08928 71.4302 7.89181C71.2821 7.50793 70.9823 7.30899 70.6271 7.14682C70.1943 6.98588 69.7044 6.9724 69.2693 7.13432C68.9557 7.28597 68.8117 7.53191 68.6869 7.85626C68.6167 8.15629 68.6583 8.39937 68.7911 8.67388C69.0627 9.0981 69.5268 9.301 69.9826 9.44484C70.0268 9.45935 70.0711 9.47393 70.1152 9.48857C70.2372 9.5288 70.3593 9.56832 70.4815 9.60769C70.7187 9.68422 70.9556 9.76173 71.1924 9.83965C71.2798 9.86829 71.3675 9.89645 71.4551 9.92457C72.1737 10.158 72.7891 10.446 73.3401 10.9845C73.3733 11.0145 73.3733 11.0145 73.4071 11.0451C73.7836 11.3979 73.9782 11.9341 74.0061 12.449C74.0084 12.5822 74.0103 12.7154 74.0108 12.8486C74.0109 12.8846 74.0109 12.8846 74.0111 12.9212C74.0112 13.2794 73.992 13.5986 73.861 13.9351C73.8502 13.9648 73.8394 13.9945 73.8282 14.0251C73.7966 14.1045 73.7613 14.1793 73.7221 14.255C73.7076 14.2833 73.693 14.3117 73.678 14.3408C73.5477 14.5783 73.3844 14.7698 73.2012 14.966C73.1815 14.9893 73.1618 15.0126 73.1414 15.0365C72.5431 15.7118 71.5818 16.0572 70.7133 16.1115C69.4185 16.1517 68.2465 15.8311 67.2761 14.9075C66.8478 14.472 66.5563 13.9525 66.4992 13.3308C66.4992 13.1783 66.4992 13.0258 66.4992 12.8686C67.2555 12.8686 68.0119 12.8686 68.7911 12.8686C68.8255 13.115 68.8255 13.115 68.8606 13.3663C69.0017 13.7428 69.2413 13.9792 69.5991 14.1473C70.1004 14.3411 70.6046 14.3509 71.0993 14.1302C71.4328 13.9559 71.6758 13.7661 71.8122 13.4019C71.9004 13.1136 71.8745 12.7719 71.7627 12.4952C71.6561 12.3221 71.4945 12.2246 71.3261 12.1221C71.2978 12.1038 71.2695 12.0854 71.2404 12.0665C70.977 11.9006 70.717 11.7957 70.4221 11.7034C70.3761 11.6886 70.3301 11.6737 70.2841 11.6587C70.1639 11.6198 70.0436 11.5814 69.9232 11.5432C69.7088 11.4751 69.4946 11.4062 69.2805 11.3368C69.2461 11.3257 69.2461 11.3257 69.211 11.3143C68.4178 11.0566 67.685 10.7774 67.0896 10.1669C67.0661 10.1454 67.0426 10.1239 67.0185 10.1018C66.6621 9.77006 66.4701 9.26579 66.4298 8.78053C66.3876 7.85943 66.4439 7.022 67.0556 6.29781C67.0783 6.27247 67.1009 6.24713 67.1243 6.22102C67.1448 6.19678 67.1653 6.17254 67.1864 6.14756C67.5251 5.7706 68.0077 5.51495 68.4807 5.36563C68.5094 5.3565 68.538 5.34738 68.5675 5.33797C70.0498 4.87682 71.6443 5.09235 72.854 6.11438Z" fill="#5E4629"/>
</g>
<g filter="url(#filter4_i_319_29)">
<path d="M49.0322 5.26121C51.0491 5.26121 53.0659 5.26121 55.1439 5.26121C55.1439 5.83603 55.1439 6.41085 55.1439 7.00309C53.8375 7.00309 52.5312 7.00309 51.1852 7.00309C51.1852 7.87119 51.1852 8.73929 51.1852 9.6337C52.3426 9.6337 53.5 9.6337 54.6925 9.6337C54.6925 10.2085 54.6925 10.7833 54.6925 11.3756C53.5351 11.3756 52.3777 11.3756 51.1852 11.3756C51.1852 12.2906 51.1852 13.2056 51.1852 14.1484C52.4916 14.1484 53.798 14.1484 55.1439 14.1484C55.1439 14.7701 55.1439 15.3919 55.1439 16.0325C53.1271 16.0325 51.1102 16.0325 49.0322 16.0325C49.0322 12.4779 49.0322 8.92343 49.0322 5.26121Z" fill="#5E4629"/>
</g>
<g filter="url(#filter5_i_319_29)">
<path d="M38.6143 5.26121C39.4279 5.26121 40.2415 5.26121 41.0798 5.26121C41.2287 5.58968 41.3777 5.91815 41.5312 6.25657C41.6172 6.44365 41.7032 6.6307 41.7897 6.81752C41.9834 7.23573 42.1759 7.65445 42.3668 8.074C42.534 8.4414 42.7017 8.80854 42.8702 9.17534C42.8945 9.2284 42.9189 9.28147 42.9432 9.33454C43.0602 9.58967 43.1773 9.84461 43.3022 10.0958C43.313 10.072 43.3237 10.0482 43.3348 10.0236C43.5764 9.48941 43.8196 8.95603 44.0647 8.42353C44.228 8.06889 44.3906 7.71395 44.5523 7.35858C44.7197 6.991 44.8875 6.62366 45.056 6.25662C45.0801 6.20408 45.1042 6.15153 45.1283 6.09898C45.162 6.0254 45.1958 5.95185 45.2296 5.87831C45.2489 5.83632 45.2681 5.79434 45.288 5.75108C45.365 5.58685 45.445 5.42414 45.5246 5.26121C46.3039 5.26121 47.0831 5.26121 47.886 5.26121C47.8374 5.41024 47.7939 5.52814 47.7241 5.66405C47.6961 5.7189 47.6961 5.7189 47.6676 5.77486C47.6472 5.81431 47.6269 5.85377 47.606 5.89442C47.5732 5.95852 47.5405 6.02265 47.5077 6.08678C47.4846 6.13203 47.4615 6.17727 47.4384 6.2225C47.3154 6.46319 47.194 6.70473 47.0726 6.94633C46.8814 7.32702 46.6896 7.70741 46.4969 8.08733C46.3176 8.44099 46.139 8.79506 45.9609 9.14935C45.7316 9.60527 45.5018 10.0609 45.2715 10.5163C45.1936 10.6703 45.1159 10.8243 45.0382 10.9784C44.9916 11.0709 44.945 11.1633 44.8984 11.2556C44.8662 11.3196 44.834 11.3835 44.8018 11.4475C44.7818 11.4872 44.7618 11.5269 44.7411 11.5678C44.7138 11.6221 44.6865 11.6765 44.66 11.7313C44.6218 11.8022 44.6218 11.8022 44.5613 11.8891C44.3123 12.2797 44.3444 12.6821 44.3474 13.1337C44.347 13.2175 44.3466 13.3014 44.3461 13.3852C44.3449 13.6044 44.3453 13.8236 44.3459 14.0428C44.3464 14.3066 44.345 14.5703 44.344 14.8341C44.3426 15.2336 44.3435 15.633 44.344 16.0325C43.622 16.0325 42.9001 16.0325 42.1563 16.0325C42.163 15.779 42.1698 15.5255 42.1767 15.2644C42.1792 15.1 42.1815 14.9356 42.1829 14.7711C42.1851 14.5123 42.1881 14.2536 42.1966 13.9949C42.2361 12.7539 42.0573 11.878 41.4145 10.8178C41.299 10.6271 41.1995 10.4298 41.1015 10.2291C41.0704 10.1683 41.0393 10.1074 41.008 10.0467C40.8766 9.7897 40.7471 9.53168 40.6175 9.27377C40.5666 9.17258 40.5158 9.0714 40.4649 8.97021C40.4523 8.94523 40.4398 8.92024 40.4268 8.89449C40.3033 8.64896 40.1794 8.40367 40.0554 8.15843C39.8441 7.7406 39.6335 7.3224 39.4232 6.90403C39.3036 6.66609 39.1837 6.42834 39.0628 6.19103C39.0516 6.16893 39.0404 6.14683 39.0288 6.12406C38.9761 6.02049 38.9233 5.91696 38.8704 5.81351C38.8519 5.77707 38.8333 5.74062 38.8142 5.70307C38.7981 5.67163 38.7821 5.64018 38.7655 5.60779C38.7109 5.49431 38.6629 5.37751 38.6143 5.26121Z" fill="#5E4629"/>
</g>
<g filter="url(#filter6_i_319_29)">
<path d="M31.6006 5.26121C33.732 5.26121 35.8635 5.26121 38.0595 5.26121C38.0595 5.83603 38.0595 6.41085 38.0595 7.00309C36.6271 7.00309 35.1947 7.00309 33.7188 7.00309C33.7188 7.89465 33.7188 8.78622 33.7188 9.70479C34.8304 9.70479 35.942 9.70479 37.0872 9.70479C37.0872 10.2796 37.0872 10.8544 37.0872 11.4467C35.9756 11.4467 34.8641 11.4467 33.7188 11.4467C33.7188 12.96 33.7188 14.4733 33.7188 16.0325C33.0198 16.0325 32.3208 16.0325 31.6006 16.0325C31.6006 12.4779 31.6006 8.92343 31.6006 5.26121Z" fill="#5E4629"/>
</g>
</g>
<defs>
<filter id="filter0_i_319_29" x="0" y="0" width="13.5078" height="27" filterUnits="userSpaceOnUse" color-interpolation-filters="sRGB">
<feFlood flood-opacity="0" result="BackgroundImageFix"/>
<feBlend mode="normal" in="SourceGraphic" in2="BackgroundImageFix" result="shape"/>
<feColorMatrix in="SourceAlpha" type="matrix" values="0 0 0 0 0 0 0 0 0 0 0 0 0 0 0 0 0 0 127 0" result="hardAlpha"/>
<feOffset dy="4"/>
<feGaussianBlur stdDeviation="2"/>
<feComposite in2="hardAlpha" operator="arithmetic" k2="-1" k3="1"/>
<feColorMatrix type="matrix" values="0 0 0 0 0 0 0 0 0 0 0 0 0 0 0 0 0 0 0.25 0"/>
<feBlend mode="normal" in2="shape" result="effect1_innerShadow_319_29"/>
</filter>
<filter id="filter1_i_319_29" x="14.585" y="0" width="13.5078" height="27" filterUnits="userSpaceOnUse" color-interpolation-filters="sRGB">
<feFlood flood-opacity="0" result="BackgroundImageFix"/>
<feBlend mode="normal" in="SourceGraphic" in2="BackgroundImageFix" result="shape"/>
<feColorMatrix in="SourceAlpha" type="matrix" values="0 0 0 0 0 0 0 0 0 0 0 0 0 0 0 0 0 0 127 0" result="hardAlpha"/>
<feOffset dy="4"/>
<feGaussianBlur stdDeviation="2"/>
<feComposite in2="hardAlpha" operator="arithmetic" k2="-1" k3="1"/>
<feColorMatrix type="matrix" values="0 0 0 0 0 0 0 0 0 0 0 0 0 0 0 0 0 0 0.25 0"/>
<feBlend mode="normal" in2="shape" result="effect1_innerShadow_319_29"/>
</filter>
<filter id="filter2_i_319_29" x="57.0537" y="5.19011" width="7.81348" height="14.8711" filterUnits="userSpaceOnUse" color-interpolation-filters="sRGB">
<feFlood flood-opacity="0" result="BackgroundImageFix"/>
<feBlend mode="normal" in="SourceGraphic" in2="BackgroundImageFix" result="shape"/>
<feColorMatrix in="SourceAlpha" type="matrix" values="0 0 0 0 0 0 0 0 0 0 0 0 0 0 0 0 0 0 127 0" result="hardAlpha"/>
<feOffset dy="4"/>
<feGaussianBlur stdDeviation="2"/>
<feComposite in2="hardAlpha" operator="arithmetic" k2="-1" k3="1"/>
<feColorMatrix type="matrix" values="0 0 0 0 0 0 0 0 0 0 0 0 0 0 0 0 0 0 0.25 0"/>
<feBlend mode="normal" in2="shape" result="effect1_innerShadow_319_29"/>
</filter>
<filter id="filter3_i_319_29" x="66.4189" y="5.10717" width="7.5918" height="15.0076" filterUnits="userSpaceOnUse" color-interpolation-filters="sRGB">
<feFlood flood-opacity="0" result="BackgroundImageFix"/>
<feBlend mode="normal" in="SourceGraphic" in2="BackgroundImageFix" result="shape"/>
<feColorMatrix in="SourceAlpha" type="matrix" values="0 0 0 0 0 0 0 0 0 0 0 0 0 0 0 0 0 0 127 0" result="hardAlpha"/>
<feOffset dy="4"/>
<feGaussianBlur stdDeviation="2"/>
<feComposite in2="hardAlpha" operator="arithmetic" k2="-1" k3="1"/>
<feColorMatrix type="matrix" values="0 0 0 0 0 0 0 0 0 0 0 0 0 0 0 0 0 0 0.25 0"/>
<feBlend mode="normal" in2="shape" result="effect1_innerShadow_319_29"/>
</filter>
<filter id="filter4_i_319_29" x="49.0322" y="5.26121" width="6.11133" height="14.7713" filterUnits="userSpaceOnUse" color-interpolation-filters="sRGB">
<feFlood flood-opacity="0" result="BackgroundImageFix"/>
<feBlend mode="normal" in="SourceGraphic" in2="BackgroundImageFix" result="shape"/>
<feColorMatrix in="SourceAlpha" type="matrix" values="0 0 0 0 0 0 0 0 0 0 0 0 0 0 0 0 0 0 127 0" result="hardAlpha"/>
<feOffset dy="4"/>
<feGaussianBlur stdDeviation="2"/>
<feComposite in2="hardAlpha" operator="arithmetic" k2="-1" k3="1"/>
<feColorMatrix type="matrix" values="0 0 0 0 0 0 0 0 0 0 0 0 0 0 0 0 0 0 0.25 0"/>
<feBlend mode="normal" in2="shape" result="effect1_innerShadow_319_29"/>
</filter>
<filter id="filter5_i_319_29" x="38.6143" y="5.26121" width="9.27148" height="14.7713" filterUnits="userSpaceOnUse" color-interpolation-filters="sRGB">
<feFlood flood-opacity="0" result="BackgroundImageFix"/>
<feBlend mode="normal" in="SourceGraphic" in2="BackgroundImageFix" result="shape"/>
<feColorMatrix in="SourceAlpha" type="matrix" values="0 0 0 0 0 0 0 0 0 0 0 0 0 0 0 0 0 0 127 0" result="hardAlpha"/>
<feOffset dy="4"/>
<feGaussianBlur stdDeviation="2"/>
<feComposite in2="hardAlpha" operator="arithmetic" k2="-1" k3="1"/>
<feColorMatrix type="matrix" values="0 0 0 0 0 0 0 0 0 0 0 0 0 0 0 0 0 0 0.25 0"/>
<feBlend mode="normal" in2="shape" result="effect1_innerShadow_319_29"/>
</filter>
<filter id="filter6_i_319_29" x="31.6006" y="5.26121" width="6.45898" height="14.7713" filterUnits="userSpaceOnUse" color-interpolation-filters="sRGB">
<feFlood flood-opacity="0" result="BackgroundImageFix"/>
<feBlend mode="normal" in="SourceGraphic" in2="BackgroundImageFix" result="shape"/>
<feColorMatrix in="SourceAlpha" type="matrix" values="0 0 0 0 0 0 0 0 0 0 0 0 0 0 0 0 0 0 127 0" result="hardAlpha"/>
<feOffset dy="4"/>
<feGaussianBlur stdDeviation="2"/>
<feComposite in2="hardAlpha" operator="arithmetic" k2="-1" k3="1"/>
<feColorMatrix type="matrix" values="0 0 0 0 0 0 0 0 0 0 0 0 0 0 0 0 0 0 0.25 0"/>
<feBlend mode="normal" in2="shape" result="effect1_innerShadow_319_29"/>
</filter>
<clipPath id="clip0_319_29">
<rect width="74" height="23" fill="white"/>
</clipPath>
</defs>
</svg>
